# xmcd CD database file
# Copyright (C) 1993-1998 Ti Kan
#
# Track frame offsets:
#  182
#  14115
#  26260
#  40085
#  54870
#  68247
#  79530
#  90990
#  101972
#  114015
#  126930
#  140215
#  153942
#  165327
#  178440
#  190000
#  203187
#  214105
#  230225
#  241745
#
# Disc length: 3385 seconds
#
# Revision: 1
# Processed by: cddbd v1.4b41PL1 Copyright (c) Steve Scherf et al.
# Submitted via: KiC 2.1 - (C) 1996-1998 Alwin Hoogerdijk
#
DISCID=0b0d3714
DTITLE=Glen Campbell - Gentle On My Mind
DYEAR=1900
DGENRE=
TTITLE0=Rhinestone Cowboy
TTITLE1=By the Time I get to Phoenix
TTITLE2=Country Boy
TTITLE3=Houston
TTITLE4=Southern Nights
TTITLE5=Everything a Man Could Ever Need
TTITLE6=Dreams of the everyday wife
TTITLE7=Its only make believe
TTITLE8=Galveston
TTITLE9=Sunflower
TTITLE10=Gentle on my mind
TTITLE11=Wichita lineman
TTITLE12=Dream baby
TTITLE13=Honey come back
TTITLE14=All I have to do is dream
TTITLE15=Where's the playground Susie
TTITLE16=Try a little kindness
TTITLE17=Oh happy day
TTITLE18=Hey little one
TTITLE19=I wanna live
EXTD=
EXTT0=
EXTT1=
EXTT2=
EXTT3=
EXTT4=
EXTT5=
EXTT6=
EXTT7=
EXTT8=
EXTT9=
EXTT10=
EXTT11=
EXTT12=
EXTT13=
EXTT14=
EXTT15=
EXTT16=
EXTT17=
EXTT18=
EXTT19=
PLAYORDER=
